# Blender v3.0.1 OBJ File: 'predio.blend'
# www.blender.org
# mtllib predio.mtl
o Cube
v 1.000000 3.928293 -1.000000
v 1.000000 0.000000 -1.000000
v 1.000000 3.928293 1.000000
v 1.000000 0.000000 1.000000
v -1.000000 3.928293 -1.000000
v -1.000000 0.000000 -1.000000
v -1.000000 3.928293 1.000000
v -1.000000 0.000000 1.000000
v 1.000000 1.964147 -1.000000
v -1.000000 1.964147 1.000000
v 1.000000 1.964147 1.000000
v -1.000000 1.964147 -1.000000
v -1.000000 0.000000 0.000000
v 1.000000 3.928293 0.000000
v -1.000000 3.928293 0.000000
v 1.000000 0.000000 0.000000
v 1.000000 1.964147 0.000000
v -1.000000 1.964147 0.000000
v -1.000000 2.946220 1.000000
v 1.000000 2.946220 -1.000000
v 1.000000 2.946220 1.000000
v -1.000000 2.946220 -1.000000
v 1.000000 2.946220 0.000000
v -1.000000 2.946220 0.000000
v 1.000000 0.982073 -1.000000
v 1.000000 0.982073 1.000000
v -1.000000 0.982073 -1.000000
v -1.000000 0.982073 1.000000
v -1.000000 0.982073 0.000000
v 1.000000 0.982073 0.000000
v 0.000000 0.000000 -1.000000
v 0.000000 3.928293 1.000000
v 0.000000 0.000000 1.000000
v 0.000000 3.928293 -1.000000
v 0.000000 1.964147 -1.000000
v 0.000000 1.964147 1.000000
v 0.000000 0.000000 0.000000
v 0.000000 3.928293 0.000000
v 0.000000 2.946220 -1.000000
v 0.000000 2.946220 1.000000
v 0.000000 0.982073 1.000000
v 0.000000 0.982073 -1.000000
v -0.135969 3.082189 1.000000
v -0.135969 3.792324 1.000000
v -0.864031 3.792324 1.000000
v -0.864031 3.082189 1.000000
v -1.000000 3.082189 -0.135969
v -1.000000 3.792324 -0.135969
v -1.000000 3.792324 -0.864031
v -1.000000 3.082189 -0.864031
v 1.000000 3.082189 0.135969
v 1.000000 3.792324 0.135969
v 1.000000 3.792324 0.864031
v 1.000000 3.082189 0.864031
v 0.135969 3.082189 -1.000000
v 0.135969 3.792324 -1.000000
v 0.864031 3.792324 -1.000000
v 0.864031 3.082189 -1.000000
v 0.135969 1.118042 -1.000000
v 0.135969 1.828178 -1.000000
v 0.864031 1.828178 -1.000000
v 0.864031 1.118042 -1.000000
v 1.000000 1.118042 0.135969
v 1.000000 1.828178 0.135969
v 1.000000 1.828178 0.864031
v 1.000000 1.118042 0.864031
v -1.000000 1.118042 -0.135969
v -1.000000 1.828178 -0.135969
v -1.000000 1.828178 -0.864031
v -1.000000 1.118042 -0.864031
v -0.135969 1.118042 1.000000
v -0.135969 1.828178 1.000000
v -0.864031 1.828178 1.000000
v -0.864031 1.118042 1.000000
v -1.000000 1.118042 0.864031
v -1.000000 1.828178 0.864031
v -1.000000 1.828178 0.135969
v -1.000000 1.118042 0.135969
v 1.000000 1.118042 -0.864031
v 1.000000 1.828178 -0.864031
v 1.000000 1.828178 -0.135969
v 1.000000 1.118042 -0.135969
v 1.000000 3.082189 -0.864031
v 1.000000 3.792324 -0.864031
v 1.000000 3.792324 -0.135969
v 1.000000 3.082189 -0.135969
v -1.000000 3.082189 0.864031
v -1.000000 3.792324 0.864031
v -1.000000 3.792324 0.135969
v -1.000000 3.082189 0.135969
v -1.000000 2.100116 0.864031
v -1.000000 2.810251 0.864031
v -1.000000 2.810251 0.135969
v -1.000000 2.100116 0.135969
v 1.000000 2.100116 -0.864031
v 1.000000 2.810251 -0.864031
v 1.000000 2.810251 -0.135969
v 1.000000 2.100116 -0.135969
v 0.135969 2.100116 -1.000000
v 0.135969 2.810251 -1.000000
v 0.864031 2.810251 -1.000000
v 0.864031 2.100116 -1.000000
v 1.000000 2.100116 0.135969
v 1.000000 2.810251 0.135969
v 1.000000 2.810251 0.864031
v 1.000000 2.100116 0.864031
v -1.000000 2.100116 -0.135969
v -1.000000 2.810251 -0.135969
v -1.000000 2.810251 -0.864031
v -1.000000 2.100116 -0.864031
v -0.135969 2.100116 1.000000
v -0.135969 2.810251 1.000000
v -0.864031 2.810251 1.000000
v -0.864031 2.100116 1.000000
v 0.864031 2.100116 1.000000
v 0.864031 2.810251 1.000000
v 0.135969 2.810251 1.000000
v 0.135969 2.100116 1.000000
v -0.864031 2.100116 -1.000000
v -0.864031 2.810251 -1.000000
v -0.135969 2.810251 -1.000000
v -0.135969 2.100116 -1.000000
v 0.864031 1.118042 1.000000
v 0.864031 1.828178 1.000000
v 0.135969 1.828178 1.000000
v 0.135969 1.118042 1.000000
v -0.864031 1.118042 -1.000000
v -0.864031 1.828178 -1.000000
v -0.135969 1.828178 -1.000000
v -0.135969 1.118042 -1.000000
v -0.864031 3.082189 -1.000000
v -0.864031 3.792324 -1.000000
v -0.135969 3.792324 -1.000000
v -0.135969 3.082189 -1.000000
v 0.864031 3.082189 1.000000
v 0.864031 3.792324 1.000000
v 0.135969 3.792324 1.000000
v 0.135969 3.082189 1.000000
v -0.135969 3.792324 0.957701
v -0.135969 3.082189 0.957701
v -0.864031 3.082189 0.957701
v -0.864031 3.792324 0.957701
v -0.957701 3.792324 -0.135969
v -0.957701 3.082189 -0.135969
v -0.957701 3.082189 -0.864031
v -0.957701 3.792324 -0.864031
v 0.957701 3.792324 0.135969
v 0.957701 3.082189 0.135969
v 0.957701 3.082189 0.864031
v 0.957701 3.792324 0.864031
v 0.135969 3.792324 -0.957701
v 0.135969 3.082189 -0.957701
v 0.864031 3.082189 -0.957701
v 0.864031 3.792324 -0.957701
v 0.135969 1.828178 -0.957701
v 0.135969 1.118042 -0.957701
v 0.864031 1.118042 -0.957701
v 0.864031 1.828178 -0.957701
v 0.957701 1.828178 0.135969
v 0.957701 1.118042 0.135969
v 0.957701 1.118042 0.864031
v 0.957701 1.828178 0.864031
v -0.957701 1.828178 -0.135969
v -0.957701 1.118042 -0.135969
v -0.957701 1.118042 -0.864031
v -0.957701 1.828178 -0.864031
v -0.135969 1.828178 0.957701
v -0.135969 1.118042 0.957701
v -0.864031 1.118042 0.957701
v -0.864031 1.828178 0.957701
v -0.957701 1.118042 0.864031
v -0.957701 1.828178 0.864031
v -0.957701 1.118042 0.135969
v -0.957701 1.828178 0.135969
v 0.957701 1.828178 -0.864031
v 0.957701 1.118042 -0.864031
v 0.957701 1.118042 -0.135969
v 0.957701 1.828178 -0.135969
v 0.957701 3.792324 -0.864031
v 0.957701 3.082189 -0.864031
v 0.957701 3.082189 -0.135969
v 0.957701 3.792324 -0.135969
v -0.957701 3.082189 0.864031
v -0.957701 3.792324 0.864031
v -0.957701 3.082189 0.135969
v -0.957701 3.792324 0.135969
v -0.957701 2.100116 0.864031
v -0.957701 2.810251 0.864031
v -0.957701 2.100116 0.135969
v -0.957701 2.810251 0.135969
v 0.957701 2.810251 -0.864031
v 0.957701 2.100116 -0.864031
v 0.957701 2.100116 -0.135969
v 0.957701 2.810251 -0.135969
v 0.135969 2.810251 -0.957701
v 0.135969 2.100116 -0.957701
v 0.864031 2.100116 -0.957701
v 0.864031 2.810251 -0.957701
v 0.957701 2.810251 0.135969
v 0.957701 2.100116 0.135969
v 0.957701 2.100116 0.864031
v 0.957701 2.810251 0.864031
v -0.957701 2.810251 -0.135969
v -0.957701 2.100116 -0.135969
v -0.957701 2.100116 -0.864031
v -0.957701 2.810251 -0.864031
v -0.135969 2.810251 0.957701
v -0.135969 2.100116 0.957701
v -0.864031 2.100116 0.957701
v -0.864031 2.810251 0.957701
v 0.864031 2.810251 0.957701
v 0.864031 2.100116 0.957701
v 0.135969 2.100116 0.957701
v 0.135969 2.810251 0.957701
v -0.864031 2.810251 -0.957701
v -0.864031 2.100116 -0.957701
v -0.135969 2.100116 -0.957701
v -0.135969 2.810251 -0.957701
v 0.864031 1.828178 0.957701
v 0.864031 1.118042 0.957701
v 0.135969 1.118042 0.957701
v 0.135969 1.828178 0.957701
v -0.864031 1.828178 -0.957701
v -0.864031 1.118042 -0.957701
v -0.135969 1.118042 -0.957701
v -0.135969 1.828178 -0.957701
v -0.864031 3.792324 -0.957701
v -0.864031 3.082189 -0.957701
v -0.135969 3.082189 -0.957701
v -0.135969 3.792324 -0.957701
v 0.864031 3.792324 0.957701
v 0.864031 3.082189 0.957701
v 0.135969 3.082189 0.957701
v 0.135969 3.792324 0.957701
v 1.000000 0.491037 1.000000
v 0.500000 0.000000 1.000000
v -1.000000 0.491037 1.000000
v -0.500000 0.982073 1.000000
v -0.500000 0.000000 1.000000
v 0.500000 0.982073 1.000000
v 0.500000 0.491037 1.000000
v -0.500000 0.491037 1.000000
v -0.250000 0.000000 1.000000
v 0.250000 0.982073 1.000000
v 0.250000 0.000000 1.000000
v -0.250000 0.982073 1.000000
v 0.000000 0.736555 1.000000
v 0.250000 0.491037 1.000000
v 0.500000 0.245518 1.000000
v 0.500000 0.736555 1.000000
v -0.250000 0.491037 1.000000
v -0.500000 0.245518 1.000000
v -0.500000 0.736555 1.000000
v -0.250000 0.736555 1.000000
v -0.250000 0.245518 1.000000
v 0.250000 0.245518 1.000000
v 0.250000 0.736555 1.000000
v -0.250000 0.000000 0.930406
v 0.000000 0.000000 0.930406
v 0.000000 0.245518 0.930406
v 0.000000 0.736555 0.930406
v 0.000000 0.491037 0.930406
v 0.250000 0.491037 0.930406
v 0.250000 0.000000 0.930406
v -0.250000 0.491037 0.930406
v -0.250000 0.736555 0.930406
v -0.250000 0.245518 0.930406
v 0.250000 0.245518 0.930406
v 0.250000 0.736555 0.930406
vt 0.750000 0.625000
vt 0.875000 0.625000
vt 0.875000 0.750000
vt 0.750000 0.750000
vt 0.491347 0.641996
vt 0.491347 0.733004
vt 0.491347 0.733004
vt 0.491347 0.641996
vt 0.508653 0.641996
vt 0.553847 0.641996
vt 0.553847 0.641996
vt 0.508653 0.641996
vt 0.250000 0.625000
vt 0.375000 0.625000
vt 0.375000 0.750000
vt 0.312500 0.750000
vt 0.281250 0.750000
vt 0.250000 0.750000
vt 0.553847 0.766996
vt 0.553847 0.858004
vt 0.553847 0.858004
vt 0.553847 0.766996
vt 0.446153 0.733004
vt 0.446153 0.641996
vt 0.446153 0.641996
vt 0.446153 0.733004
vt 0.491347 0.108004
vt 0.446153 0.108004
vt 0.446153 0.108004
vt 0.491347 0.108004
vt 0.508653 0.858004
vt 0.508653 0.766996
vt 0.508653 0.766996
vt 0.508653 0.858004
vt 0.491347 0.358004
vt 0.446153 0.358004
vt 0.446153 0.358004
vt 0.491347 0.358004
vt 0.491347 0.016996
vt 0.491347 0.016996
vt 0.491347 0.266996
vt 0.491347 0.266996
vt 0.250000 0.500000
vt 0.375000 0.500000
vt 0.446153 0.016996
vt 0.446153 0.016996
vt 0.750000 0.500000
vt 0.875000 0.500000
vt 0.616347 0.108004
vt 0.571153 0.108004
vt 0.571153 0.108004
vt 0.616347 0.108004
vt 0.446153 0.266996
vt 0.446153 0.266996
vt 0.616347 0.016996
vt 0.616347 0.016996
vt 0.616347 0.233004
vt 0.571153 0.233004
vt 0.571153 0.233004
vt 0.616347 0.233004
vt 0.437500 0.500000
vt 0.437500 0.625000
vt 0.375000 0.000000
vt 0.406250 0.000000
vt 0.437500 0.000000
vt 0.437500 0.125000
vt 0.375000 0.125000
vt 0.406250 0.937500
vt 0.421875 0.937500
vt 0.437500 0.937500
vt 0.437500 1.000000
vt 0.406250 1.000000
vt 0.437500 0.250000
vt 0.375000 0.250000
vt 0.437500 0.750000
vt 0.406250 0.750000
vt 0.375000 0.375000
vt 0.437500 0.375000
vt 0.421875 0.843750
vt 0.437500 0.843750
vt 0.437500 0.875000
vt 0.421875 0.875000
vt 0.571153 0.016996
vt 0.571153 0.016996
vt 0.553847 0.483004
vt 0.508653 0.483004
vt 0.508653 0.483004
vt 0.553847 0.483004
vt 0.625000 0.500000
vt 0.625000 0.625000
vt 0.125000 0.500000
vt 0.125000 0.625000
vt 0.616347 0.141996
vt 0.616347 0.141996
vt 0.553847 0.391996
vt 0.553847 0.391996
vt 0.218750 0.750000
vt 0.187500 0.750000
vt 0.125000 0.750000
vt 0.571153 0.141996
vt 0.571153 0.141996
vt 0.625000 0.750000
vt 0.562500 0.875000
vt 0.625000 0.875000
vt 0.616347 0.891996
vt 0.571153 0.891996
vt 0.625000 1.000000
vt 0.616347 0.983004
vt 0.562500 1.000000
vt 0.571153 0.983004
vt 0.562500 0.125000
vt 0.625000 0.125000
vt 0.625000 0.250000
vt 0.562500 0.250000
vt 0.562500 0.625000
vt 0.616347 0.641996
vt 0.571153 0.641996
vt 0.616347 0.733004
vt 0.562500 0.750000
vt 0.571153 0.733004
vt 0.562500 0.375000
vt 0.625000 0.375000
vt 0.616347 0.391996
vt 0.571153 0.391996
vt 0.616347 0.483004
vt 0.562500 0.500000
vt 0.571153 0.483004
vt 0.500000 0.375000
vt 0.491347 0.391996
vt 0.446153 0.391996
vt 0.500000 0.500000
vt 0.491347 0.483004
vt 0.446153 0.483004
vt 0.500000 0.625000
vt 0.500000 0.750000
vt 0.500000 0.125000
vt 0.491347 0.141996
vt 0.446153 0.141996
vt 0.500000 0.250000
vt 0.491347 0.233004
vt 0.446153 0.233004
vt 0.500000 0.875000
vt 0.491347 0.891996
vt 0.446153 0.891996
vt 0.500000 1.000000
vt 0.491347 0.983004
vt 0.446153 0.983004
vt 0.437500 0.906250
vt 0.500000 0.000000
vt 0.491347 0.516996
vt 0.446153 0.516996
vt 0.491347 0.608004
vt 0.446153 0.608004
vt 0.616347 0.516996
vt 0.571153 0.516996
vt 0.616347 0.608004
vt 0.571153 0.608004
vt 0.562500 0.000000
vt 0.625000 0.000000
vt 0.553847 0.016996
vt 0.508653 0.016996
vt 0.553847 0.108004
vt 0.508653 0.108004
vt 0.553847 0.516996
vt 0.508653 0.516996
vt 0.553847 0.608004
vt 0.508653 0.608004
vt 0.508653 0.391996
vt 0.553847 0.733004
vt 0.508653 0.733004
vt 0.553847 0.141996
vt 0.508653 0.141996
vt 0.553847 0.233004
vt 0.508653 0.233004
vt 0.553847 0.891996
vt 0.508653 0.891996
vt 0.553847 0.983004
vt 0.508653 0.983004
vt 0.553847 0.266996
vt 0.508653 0.266996
vt 0.553847 0.358004
vt 0.508653 0.358004
vt 0.491347 0.766996
vt 0.446153 0.766996
vt 0.491347 0.858004
vt 0.446153 0.858004
vt 0.437500 0.812500
vt 0.616347 0.266996
vt 0.571153 0.266996
vt 0.616347 0.358004
vt 0.571153 0.358004
vt 0.616347 0.766996
vt 0.571153 0.766996
vt 0.616347 0.858004
vt 0.571153 0.858004
vt 0.571153 0.891996
vt 0.616347 0.891996
vt 0.616347 0.983004
vt 0.571153 0.983004
vt 0.571153 0.641996
vt 0.616347 0.641996
vt 0.616347 0.733004
vt 0.571153 0.733004
vt 0.571153 0.391996
vt 0.616347 0.391996
vt 0.616347 0.483004
vt 0.571153 0.483004
vt 0.446153 0.391996
vt 0.491347 0.391996
vt 0.491347 0.483004
vt 0.446153 0.483004
vt 0.446153 0.141996
vt 0.491347 0.141996
vt 0.491347 0.233004
vt 0.446153 0.233004
vt 0.446153 0.891996
vt 0.491347 0.891996
vt 0.491347 0.983004
vt 0.446153 0.983004
vt 0.446153 0.516996
vt 0.491347 0.516996
vt 0.491347 0.608004
vt 0.446153 0.608004
vt 0.571153 0.516996
vt 0.616347 0.516996
vt 0.616347 0.608004
vt 0.571153 0.608004
vt 0.508653 0.016996
vt 0.553847 0.016996
vt 0.553847 0.108004
vt 0.508653 0.108004
vt 0.508653 0.516996
vt 0.553847 0.516996
vt 0.553847 0.608004
vt 0.508653 0.608004
vt 0.508653 0.391996
vt 0.553847 0.733004
vt 0.508653 0.733004
vt 0.508653 0.141996
vt 0.553847 0.141996
vt 0.553847 0.233004
vt 0.508653 0.233004
vt 0.508653 0.891996
vt 0.553847 0.891996
vt 0.553847 0.983004
vt 0.508653 0.983004
vt 0.508653 0.266996
vt 0.553847 0.266996
vt 0.553847 0.358004
vt 0.508653 0.358004
vt 0.446153 0.766996
vt 0.491347 0.766996
vt 0.491347 0.858004
vt 0.446153 0.858004
vt 0.571153 0.266996
vt 0.616347 0.266996
vt 0.616347 0.358004
vt 0.571153 0.358004
vt 0.571153 0.766996
vt 0.616347 0.766996
vt 0.616347 0.858004
vt 0.571153 0.858004
vt 0.406250 0.906250
vt 0.390625 0.906250
vt 0.390625 0.906250
vt 0.406250 0.906250
vt 0.406250 0.812500
vt 0.390625 0.812500
vt 0.375000 0.812500
vt 0.421875 0.812500
vt 0.375000 0.937500
vt 0.390625 0.937500
vt 0.375000 1.000000
vt 0.421875 0.906250
vt 0.375000 0.843750
vt 0.390625 0.843750
vt 0.390625 0.843750
vt 0.375000 0.843750
vt 0.375000 0.906250
vt 0.375000 0.906250
vt 0.250000 0.750000
vt 0.218750 0.750000
vt 0.421875 0.906250
vt 0.406250 0.843750
vt 0.421875 0.875000
vt 0.421875 0.843750
vt 0.406250 0.843750
vt 0.406250 0.875000
vt 0.390625 0.875000
vt 0.375000 0.875000
vt 0.281250 0.750000
vn 0.0000 1.0000 0.0000
vn 0.0000 -1.0000 0.0000
vn 0.0000 0.0000 1.0000
vn -1.0000 0.0000 0.0000
vn 0.0000 0.0000 -1.0000
vn 1.0000 0.0000 0.0000
usemtl Material
s off
f 38/1/1 15/2/1 7/3/1 32/4/1
f 64/5/2 65/6/2 162/7/2 159/8/2
f 103/9/3 104/10/3 199/11/3 200/12/3
f 37/13/2 16/14/2 4/15/2 236/16/2 245/17/2 33/18/2
f 116/19/2 117/20/2 214/21/2 211/22/2
f 66/23/1 63/24/1 160/25/1 161/26/1
f 77/27/3 78/28/3 173/29/3 174/30/3
f 118/31/1 115/32/1 212/33/1 213/34/1
f 63/24/3 64/5/3 159/8/3 160/25/3
f 129/35/4 130/36/4 225/37/4 226/38/4
f 76/39/2 77/27/2 174/30/2 172/40/2
f 115/32/4 116/19/4 211/22/4 212/33/4
f 128/41/2 129/35/2 226/38/2 223/42/2
f 31/43/2 2/44/2 16/14/2 37/13/2
f 78/28/1 75/45/1 171/46/1 173/29/1
f 34/47/1 5/48/1 15/2/1 38/1/1
f 89/49/3 90/50/3 185/51/3 186/52/3
f 130/36/1 127/53/1 224/54/1 225/37/1
f 75/45/5 76/39/5 172/40/5 171/46/5
f 88/55/2 89/49/2 186/52/2 184/56/2
f 49/57/3 50/58/3 145/59/3 146/60/3
f 127/53/6 128/41/6 223/42/6 224/54/6
f 2/44/6 25/61/6 30/62/6 16/14/6
f 8/63/4 237/64/4 28/65/4 29/66/4 13/67/4
f 242/68/3 253/69/3 238/70/3 28/71/3 237/72/3
f 13/67/4 29/66/4 27/73/4 6/74/4
f 16/14/6 30/62/6 26/75/6 235/76/6 4/15/6
f 31/77/5 42/78/5 25/61/5 2/44/5
f 6/74/5 27/73/5 42/78/5 31/77/5
f 257/79/3 244/80/3 41/81/3 247/82/3
f 90/50/1 87/83/1 183/84/1 185/51/1
f 101/85/4 102/86/4 197/87/4 198/88/4
f 1/89/1 34/47/1 38/1/1 14/90/1
f 6/91/2 31/43/2 37/13/2 13/92/2
f 48/93/2 49/57/2 146/60/2 143/94/2
f 87/83/5 88/55/5 184/56/5 183/84/5
f 100/95/2 101/85/2 198/88/2 195/96/2
f 13/92/2 37/13/2 33/18/2 243/97/2 239/98/2 8/99/2
f 50/58/1 47/100/1 144/101/1 145/59/1
f 14/90/1 38/1/1 32/4/1 3/102/1
f 40/103/3 32/104/3 44/105/3 43/106/3
f 32/104/3 7/107/3 45/108/3 44/105/3
f 7/107/3 19/109/3 46/110/3 45/108/3
f 19/109/3 40/103/3 43/106/3 46/110/3
f 24/111/4 15/112/4 48/93/4 47/100/4
f 15/112/4 5/113/4 49/57/4 48/93/4
f 5/113/4 22/114/4 50/58/4 49/57/4
f 22/114/4 24/111/4 47/100/4 50/58/4
f 23/115/6 14/90/6 52/116/6 51/117/6
f 14/90/6 3/102/6 53/118/6 52/116/6
f 3/102/6 21/119/6 54/120/6 53/118/6
f 21/119/6 23/115/6 51/117/6 54/120/6
f 39/121/5 34/122/5 56/123/5 55/124/5
f 34/122/5 1/89/5 57/125/5 56/123/5
f 1/89/5 20/126/5 58/127/5 57/125/5
f 20/126/5 39/121/5 55/124/5 58/127/5
f 42/78/5 35/128/5 60/129/5 59/130/5
f 35/128/5 9/131/5 61/132/5 60/129/5
f 9/131/5 25/61/5 62/133/5 61/132/5
f 25/61/5 42/78/5 59/130/5 62/133/5
f 30/62/6 17/134/6 64/5/6 63/24/6
f 17/134/6 11/135/6 65/6/6 64/5/6
f 11/135/6 26/75/6 66/23/6 65/6/6
f 26/75/6 30/62/6 63/24/6 66/23/6
f 29/66/4 18/136/4 68/137/4 67/138/4
f 18/136/4 12/139/4 69/140/4 68/137/4
f 12/139/4 27/73/4 70/141/4 69/140/4
f 27/73/4 29/66/4 67/138/4 70/141/4
f 41/81/3 36/142/3 72/143/3 71/144/3
f 36/142/3 10/145/3 73/146/3 72/143/3
f 10/145/3 28/71/3 74/147/3 73/146/3
f 28/71/3 238/70/3 246/148/3 41/81/3 71/144/3 74/147/3
f 28/65/4 10/149/4 76/39/4 75/45/4
f 10/149/4 18/136/4 77/27/4 76/39/4
f 18/136/4 29/66/4 78/28/4 77/27/4
f 29/66/4 28/65/4 75/45/4 78/28/4
f 25/61/6 9/131/6 80/150/6 79/151/6
f 9/131/6 17/134/6 81/152/6 80/150/6
f 17/134/6 30/62/6 82/153/6 81/152/6
f 30/62/6 25/61/6 79/151/6 82/153/6
f 20/126/6 1/89/6 84/154/6 83/155/6
f 1/89/6 14/90/6 85/156/6 84/154/6
f 14/90/6 23/115/6 86/157/6 85/156/6
f 23/115/6 20/126/6 83/155/6 86/157/6
f 19/158/4 7/159/4 88/55/4 87/83/4
f 7/159/4 15/112/4 89/49/4 88/55/4
f 15/112/4 24/111/4 90/50/4 89/49/4
f 24/111/4 19/158/4 87/83/4 90/50/4
f 10/149/4 19/158/4 92/160/4 91/161/4
f 19/158/4 24/111/4 93/162/4 92/160/4
f 24/111/4 18/136/4 94/163/4 93/162/4
f 18/136/4 10/149/4 91/161/4 94/163/4
f 9/131/6 20/126/6 96/164/6 95/165/6
f 20/126/6 23/115/6 97/166/6 96/164/6
f 23/115/6 17/134/6 98/167/6 97/166/6
f 17/134/6 9/131/6 95/165/6 98/167/6
f 35/128/5 39/121/5 100/95/5 99/168/5
f 39/121/5 20/126/5 101/85/5 100/95/5
f 20/126/5 9/131/5 102/86/5 101/85/5
f 9/131/5 35/128/5 99/168/5 102/86/5
f 17/134/6 23/115/6 104/10/6 103/9/6
f 23/115/6 21/119/6 105/169/6 104/10/6
f 21/119/6 11/135/6 106/170/6 105/169/6
f 11/135/6 17/134/6 103/9/6 106/170/6
f 18/136/4 24/111/4 108/171/4 107/172/4
f 24/111/4 22/114/4 109/173/4 108/171/4
f 22/114/4 12/139/4 110/174/4 109/173/4
f 12/139/4 18/136/4 107/172/4 110/174/4
f 36/142/3 40/103/3 112/175/3 111/176/3
f 40/103/3 19/109/3 113/177/3 112/175/3
f 19/109/3 10/145/3 114/178/3 113/177/3
f 10/145/3 36/142/3 111/176/3 114/178/3
f 11/135/3 21/119/3 116/19/3 115/32/3
f 21/119/3 40/103/3 117/20/3 116/19/3
f 40/103/3 36/142/3 118/31/3 117/20/3
f 36/142/3 11/135/3 115/32/3 118/31/3
f 12/139/5 22/114/5 120/179/5 119/180/5
f 22/114/5 39/121/5 121/181/5 120/179/5
f 39/121/5 35/128/5 122/182/5 121/181/5
f 35/128/5 12/139/5 119/180/5 122/182/5
f 26/75/3 11/135/3 124/183/3 123/184/3
f 11/135/3 36/142/3 125/185/3 124/183/3
f 36/142/3 41/81/3 126/186/3 125/185/3
f 41/81/3 244/80/3 240/187/3 26/75/3 123/184/3 126/186/3
f 27/73/5 12/139/5 128/41/5 127/53/5
f 12/139/5 35/128/5 129/35/5 128/41/5
f 35/128/5 42/78/5 130/36/5 129/35/5
f 42/78/5 27/73/5 127/53/5 130/36/5
f 22/114/5 5/113/5 132/188/5 131/189/5
f 5/113/5 34/122/5 133/190/5 132/188/5
f 34/122/5 39/121/5 134/191/5 133/190/5
f 39/121/5 22/114/5 131/189/5 134/191/5
f 21/119/3 3/102/3 136/192/3 135/193/3
f 3/102/3 32/104/3 137/194/3 136/192/3
f 32/104/3 40/103/3 138/195/3 137/194/3
f 40/103/3 21/119/3 135/193/3 138/195/3
f 140/196/3 139/197/3 142/198/3 141/199/3
f 144/101/4 143/94/4 146/60/4 145/59/4
f 148/200/6 147/201/6 150/202/6 149/203/6
f 152/204/5 151/205/5 154/206/5 153/207/5
f 156/208/5 155/209/5 158/210/5 157/211/5
f 160/25/6 159/8/6 162/7/6 161/26/6
f 164/212/4 163/213/4 166/214/4 165/215/4
f 168/216/3 167/217/3 170/218/3 169/219/3
f 171/46/4 172/40/4 174/30/4 173/29/4
f 176/220/6 175/221/6 178/222/6 177/223/6
f 180/224/6 179/225/6 182/226/6 181/227/6
f 183/84/4 184/56/4 186/52/4 185/51/4
f 187/228/4 188/229/4 190/230/4 189/231/4
f 192/232/6 191/233/6 194/234/6 193/235/6
f 196/236/5 195/96/5 198/88/5 197/87/5
f 200/12/6 199/11/6 202/237/6 201/238/6
f 204/239/4 203/240/4 206/241/4 205/242/4
f 208/243/3 207/244/3 210/245/3 209/246/3
f 212/33/3 211/22/3 214/21/3 213/34/3
f 216/247/5 215/248/5 218/249/5 217/250/5
f 220/251/3 219/252/3 222/253/3 221/254/3
f 224/54/5 223/42/5 226/38/5 225/37/5
f 228/255/5 227/256/5 230/257/5 229/258/5
f 232/259/3 231/260/3 234/261/3 233/262/3
f 117/20/6 118/31/6 213/34/6 214/21/6
f 51/117/3 52/116/3 147/201/3 148/200/3
f 106/170/1 103/9/1 200/12/1 201/238/1
f 65/6/5 66/23/5 161/26/5 162/7/5
f 54/120/1 51/117/1 148/200/1 149/203/1
f 104/10/2 105/169/2 202/237/2 199/11/2
f 91/161/5 92/160/5 188/229/5 187/228/5
f 52/116/2 53/118/2 150/202/2 147/201/2
f 105/169/5 106/170/5 201/238/5 202/237/5
f 94/163/1 91/161/1 187/228/1 189/231/1
f 131/189/6 132/188/6 227/256/6 228/255/6
f 53/118/5 54/120/5 149/203/5 150/202/5
f 92/160/2 93/162/2 190/230/2 188/229/2
f 79/151/3 80/150/3 175/221/3 176/220/3
f 134/191/1 131/189/1 228/255/1 229/258/1
f 93/162/3 94/163/3 189/231/3 190/230/3
f 82/153/1 79/151/1 176/220/1 177/223/1
f 132/188/2 133/190/2 230/257/2 227/256/2
f 119/180/6 120/179/6 215/248/6 216/247/6
f 80/150/2 81/152/2 178/222/2 175/221/2
f 133/190/4 134/191/4 229/258/4 230/257/4
f 67/138/5 68/137/5 163/213/5 164/212/5
f 122/182/1 119/180/1 216/247/1 217/250/1
f 81/152/5 82/153/5 177/223/5 178/222/5
f 70/141/1 67/138/1 164/212/1 165/215/1
f 120/179/2 121/181/2 218/249/2 215/248/2
f 107/172/5 108/171/5 203/240/5 204/239/5
f 68/137/2 69/140/2 166/214/2 163/213/2
f 121/181/4 122/182/4 217/250/4 218/249/4
f 55/124/6 56/123/6 151/205/6 152/204/6
f 110/174/1 107/172/1 204/239/1 205/242/1
f 69/140/3 70/141/3 165/215/3 166/214/3
f 58/127/1 55/124/1 152/204/1 153/207/1
f 108/171/2 109/173/2 206/241/2 203/240/2
f 95/165/3 96/164/3 191/233/3 192/232/3
f 56/123/2 57/125/2 154/206/2 151/205/2
f 109/173/3 110/174/3 205/242/3 206/241/3
f 43/106/4 44/105/4 139/197/4 140/196/4
f 98/167/1 95/165/1 192/232/1 193/235/1
f 135/193/4 136/192/4 231/260/4 232/259/4
f 57/125/4 58/127/4 153/207/4 154/206/4
f 46/110/1 43/106/1 140/196/1 141/199/1
f 96/164/2 97/166/2 194/234/2 191/233/2
f 83/155/3 84/154/3 179/225/3 180/224/3
f 138/195/1 135/193/1 232/259/1 233/262/1
f 44/105/2 45/108/2 142/198/2 139/197/2
f 97/166/5 98/167/5 193/235/5 194/234/5
f 86/157/1 83/155/1 180/224/1 181/227/1
f 136/192/2 137/194/2 234/261/2 231/260/2
f 123/184/4 124/183/4 219/252/4 220/251/4
f 45/108/6 46/110/6 141/199/6 142/198/6
f 84/154/2 85/156/2 182/226/2 179/225/2
f 137/194/6 138/195/6 233/262/6 234/261/6
f 71/144/4 72/143/4 167/217/4 168/216/4
f 126/186/1 123/184/1 220/251/1 221/254/1
f 85/156/5 86/157/5 181/227/5 182/226/5
f 74/147/1 71/144/1 168/216/1 169/219/1
f 124/183/2 125/185/2 222/253/2 219/252/2
f 111/176/4 112/175/4 207/244/4 208/243/4
f 72/143/2 73/146/2 170/218/2 167/217/2
f 125/185/6 126/186/6 221/254/6 222/253/6
f 59/130/6 60/129/6 155/209/6 156/208/6
f 114/178/1 111/176/1 208/243/1 209/246/1
f 73/146/6 74/147/6 169/219/6 170/218/6
f 62/133/1 59/130/1 156/208/1 157/211/1
f 112/175/2 113/177/2 210/245/2 207/244/2
f 99/168/6 100/95/6 195/96/6 196/236/6
f 60/129/2 61/132/2 158/210/2 155/209/2
f 113/177/6 114/178/6 209/246/6 210/245/6
f 47/100/5 48/93/5 143/94/5 144/101/5
f 102/86/1 99/168/1 196/236/1 197/87/1
f 61/132/4 62/133/4 157/211/4 158/210/4
f 251/263/6 255/264/6 267/265/6 265/266/6
f 4/15/3 235/76/3 241/267/3 249/268/3 236/269/3
f 235/76/3 26/75/3 240/187/3 250/270/3 241/267/3
f 239/271/3 252/272/3 242/68/3 237/72/3 8/273/3
f 255/264/3 251/263/3 242/68/3 252/272/3
f 254/274/3 246/148/3 238/70/3 253/69/3
f 251/263/3 254/274/3 253/69/3 242/68/3
f 245/275/4 256/276/4 268/277/4 264/278/4
f 247/82/3 41/81/3 246/148/3 254/274/3
f 243/279/3 255/264/3 252/272/3 239/271/3
f 255/264/6 243/279/6 258/280/6 267/265/6
f 243/97/1 33/18/1 259/281/1 258/282/1
f 254/274/6 251/263/6 265/266/6 266/283/6
f 236/269/3 249/268/3 256/276/3 245/275/3
f 249/268/3 241/267/3 248/284/3 256/276/3
f 257/79/2 247/82/2 261/285/2 269/286/2
f 241/267/3 250/270/3 257/79/3 248/284/3
f 250/270/3 240/187/3 244/80/3 257/79/3
f 268/277/3 263/287/3 262/288/3 260/289/3
f 262/288/3 261/285/3 266/283/3 265/266/3
f 259/290/3 260/289/3 267/265/3 258/280/3
f 260/289/3 262/288/3 265/266/3 267/265/3
f 264/278/3 268/277/3 260/289/3 259/290/3
f 263/287/3 269/286/3 261/285/3 262/288/3
f 248/284/4 257/79/4 269/286/4 263/287/4
f 256/276/4 248/284/4 263/287/4 268/277/4
f 247/82/2 254/274/2 266/283/2 261/285/2
f 33/18/1 245/17/1 264/291/1 259/281/1
